<svg width="24" height="24" viewBox="0 0 24 24" fill="none" xmlns="http://www.w3.org/2000/svg">
<circle cx="12" cy="12" r="12" fill="#F0E2FF"/>
<path d="M15.0306 9.96938C15.1005 10.0391 15.156 10.1218 15.1939 10.213C15.2317 10.3042 15.2512 10.4019 15.2512 10.5006C15.2512 10.5993 15.2317 10.6971 15.1939 10.7882C15.156 10.8794 15.1005 10.9622 15.0306 11.0319L11.5306 14.5319C11.4609 14.6018 11.3782 14.6573 11.287 14.6951C11.1958 14.733 11.0981 14.7525 10.9994 14.7525C10.9007 14.7525 10.8029 14.733 10.7118 14.6951C10.6206 14.6573 10.5378 14.6018 10.4681 14.5319L8.96813 13.0319C8.89836 12.9621 8.84302 12.8793 8.80527 12.7881C8.76751 12.697 8.74808 12.5993 8.74808 12.5006C8.74808 12.402 8.76751 12.3043 8.80527 12.2131C8.84302 12.122 8.89836 12.0391 8.96813 11.9694C9.03789 11.8996 9.12072 11.8443 9.21187 11.8065C9.30302 11.7688 9.40072 11.7493 9.49938 11.7493C9.59804 11.7493 9.69574 11.7688 9.78689 11.8065C9.87804 11.8443 9.96086 11.8996 10.0306 11.9694L11 12.9375L13.9694 9.9675C14.0392 9.89789 14.122 9.84272 14.2131 9.80513C14.3042 9.76755 14.4018 9.7483 14.5004 9.74847C14.599 9.74865 14.6965 9.76825 14.7875 9.80615C14.8785 9.84405 14.9611 9.89952 15.0306 9.96938ZM18.75 12C18.75 13.335 18.3541 14.6401 17.6124 15.7501C16.8707 16.8601 15.8165 17.7253 14.5831 18.2362C13.3497 18.7471 11.9925 18.8808 10.6831 18.6203C9.37377 18.3598 8.17104 17.717 7.22703 16.773C6.28303 15.829 5.64015 14.6262 5.3797 13.3169C5.11925 12.0075 5.25292 10.6503 5.76382 9.41689C6.27471 8.18349 7.13987 7.12928 8.2499 6.38758C9.35994 5.64588 10.665 5.25 12 5.25C13.7896 5.25199 15.5053 5.96378 16.7708 7.22922C18.0362 8.49466 18.748 10.2104 18.75 12ZM17.25 12C17.25 10.9616 16.9421 9.94661 16.3652 9.08326C15.7883 8.2199 14.9684 7.54699 14.0091 7.14963C13.0498 6.75227 11.9942 6.6483 10.9758 6.85088C9.95738 7.05345 9.02192 7.55346 8.28769 8.28769C7.55347 9.02191 7.05345 9.95738 6.85088 10.9758C6.64831 11.9942 6.75228 13.0498 7.14964 14.0091C7.547 14.9684 8.2199 15.7883 9.08326 16.3652C9.94662 16.9421 10.9617 17.25 12 17.25C13.3919 17.2485 14.7264 16.6949 15.7107 15.7107C16.6949 14.7264 17.2485 13.3919 17.25 12Z" fill="#A855F7"/>
</svg>
